<svg width="266" height="119" viewBox="0 0 266 119" fill="none" xmlns="http://www.w3.org/2000/svg">
<path d="M22.9848 24.998H12.0788L10.1518 30H0.31182L12.8578 1.3H22.3698L34.9158 30H24.9118L22.9848 24.998ZM20.3198 18.028L17.5318 10.812L14.7438 18.028H20.3198ZM36.46 1.3H46.136V22.497H59.092V30H36.46V1.3ZM61.7647 1.3H71.4407V22.497H84.3967V30H61.7647V1.3ZM110.062 30.656C107.684 30.656 105.361 30.3963 103.092 29.877C100.851 29.3303 99.0061 28.606 97.5574 27.704L100.673 20.652C102.04 21.4447 103.571 22.087 105.265 22.579C106.96 23.0437 108.586 23.276 110.144 23.276C111.484 23.276 112.44 23.153 113.014 22.907C113.588 22.6337 113.875 22.2373 113.875 21.718C113.875 21.1167 113.493 20.6657 112.727 20.365C111.989 20.0643 110.759 19.7363 109.037 19.381C106.823 18.9163 104.978 18.4243 103.502 17.905C102.026 17.3583 100.742 16.4837 99.6484 15.281C98.5551 14.051 98.0084 12.3973 98.0084 10.32C98.0084 8.516 98.5141 6.876 99.5254 5.4C100.537 3.924 102.04 2.76233 104.035 1.915C106.058 1.06767 108.504 0.643999 111.374 0.643999C113.342 0.643999 115.269 0.862665 117.155 1.3C119.069 1.71 120.75 2.325 122.198 3.145L119.287 10.156C116.472 8.73467 113.807 8.024 111.292 8.024C108.805 8.024 107.561 8.62533 107.561 9.828C107.561 10.402 107.93 10.8393 108.668 11.14C109.406 11.4133 110.623 11.714 112.317 12.042C114.504 12.452 116.349 12.9303 117.852 13.477C119.356 13.9963 120.654 14.8573 121.747 16.06C122.868 17.2627 123.428 18.9027 123.428 20.98C123.428 22.784 122.923 24.424 121.911 25.9C120.9 27.3487 119.383 28.5103 117.36 29.385C115.365 30.2323 112.932 30.656 110.062 30.656ZM132.139 8.803H123.734V1.3H150.22V8.803H141.815V30H132.139V8.803ZM170.849 24.998H159.943L158.016 30H148.176L160.722 1.3H170.234L182.78 30H172.776L170.849 24.998ZM168.184 18.028L165.396 10.812L162.608 18.028H168.184ZM196.624 22.784H194V30H184.324V1.3H198.141C200.793 1.3 203.102 1.73733 205.07 2.612C207.038 3.48667 208.555 4.744 209.621 6.384C210.687 8.024 211.22 9.93733 211.22 12.124C211.22 14.174 210.756 15.9643 209.826 17.495C208.897 19.0257 207.558 20.242 205.808 21.144L211.835 30H201.503L196.624 22.784ZM201.462 12.124C201.462 11.058 201.134 10.238 200.478 9.664C199.822 9.06267 198.838 8.762 197.526 8.762H194V15.486H197.526C198.838 15.486 199.822 15.199 200.478 14.625C201.134 14.0237 201.462 13.19 201.462 12.124ZM220.706 8.803H212.301V1.3H238.787V8.803H230.382V30H220.706V8.803ZM252.001 30.656C249.623 30.656 247.3 30.3963 245.031 29.877C242.79 29.3303 240.945 28.606 239.496 27.704L242.612 20.652C243.979 21.4447 245.509 22.087 247.204 22.579C248.899 23.0437 250.525 23.276 252.083 23.276C253.422 23.276 254.379 23.153 254.953 22.907C255.527 22.6337 255.814 22.2373 255.814 21.718C255.814 21.1167 255.431 20.6657 254.666 20.365C253.928 20.0643 252.698 19.7363 250.976 19.381C248.762 18.9163 246.917 18.4243 245.441 17.905C243.965 17.3583 242.68 16.4837 241.587 15.281C240.494 14.051 239.947 12.3973 239.947 10.32C239.947 8.516 240.453 6.876 241.464 5.4C242.475 3.924 243.979 2.76233 245.974 1.915C247.997 1.06767 250.443 0.643999 253.313 0.643999C255.281 0.643999 257.208 0.862665 259.094 1.3C261.007 1.71 262.688 2.325 264.137 3.145L261.226 10.156C258.411 8.73467 255.746 8.024 253.231 8.024C250.744 8.024 249.5 8.62533 249.5 9.828C249.5 10.402 249.869 10.8393 250.607 11.14C251.345 11.4133 252.561 11.714 254.256 12.042C256.443 12.452 258.288 12.9303 259.791 13.477C261.294 13.9963 262.593 14.8573 263.686 16.06C264.807 17.2627 265.367 18.9027 265.367 20.98C265.367 22.784 264.861 24.424 263.85 25.9C262.839 27.3487 261.322 28.5103 259.299 29.385C257.304 30.2323 254.871 30.656 252.001 30.656ZM82.3806 67.9V119H65.1526V100.166H49.2386V119H32.0106V67.9H49.2386V86.004H65.1526V67.9H82.3806ZM133.168 106.006V119H90.6815V67.9H132.219V80.894H107.618V86.88H129.226V99.29H107.618V106.006H133.168ZM161.7 106.152H157.028V119H139.8V67.9H164.401C169.121 67.9 173.234 68.6787 176.738 70.236C180.242 71.7933 182.943 74.032 184.841 76.952C186.739 79.872 187.688 83.2787 187.688 87.172C187.688 90.822 186.86 94.0097 185.206 96.735C183.551 99.4603 181.166 101.626 178.052 103.232L188.783 119H170.387L161.7 106.152ZM170.314 87.172C170.314 85.274 169.73 83.814 168.562 82.792C167.394 81.7213 165.642 81.186 163.306 81.186H157.028V93.158H163.306C165.642 93.158 167.394 92.647 168.562 91.625C169.73 90.5543 170.314 89.07 170.314 87.172ZM236.679 106.006V119H194.193V67.9H235.73V80.894H211.129V86.88H232.737V99.29H211.129V106.006H236.679Z" fill="white"/>
</svg>
