<svg width="430" height="76" viewBox="0 0 430 76" fill="none" xmlns="http://www.w3.org/2000/svg">
<path d="M42.5566 42.64H9.19656C9.4099 45.7333 10.8232 48.24 13.4366 50.16C16.0499 52.0267 19.0366 52.96 22.3966 52.96C27.7299 52.96 31.7832 51.28 34.5566 47.92L39.6766 53.52C35.0899 58.2667 29.1166 60.64 21.7566 60.64C15.7832 60.64 10.6899 58.6667 6.47656 54.72C2.31656 50.72 0.236563 45.3867 0.236563 38.72C0.236563 32 2.3699 26.6667 6.63656 22.72C10.9032 18.7733 15.9166 16.8 21.6766 16.8C27.4899 16.8 32.4232 18.56 36.4766 22.08C40.5299 25.5467 42.5566 30.3467 42.5566 36.48V42.64ZM9.19656 35.6H33.5966C33.5966 32.0267 32.4766 29.28 30.2366 27.36C27.9966 25.44 25.2232 24.48 21.9166 24.48C18.6632 24.48 15.7299 25.4933 13.1166 27.52C10.5032 29.4933 9.19656 32.1867 9.19656 35.6ZM75.2097 16.8C80.9164 16.8 85.7964 18.7733 89.8497 22.72C93.903 26.6667 95.9297 31.92 95.9297 38.48C95.9297 45.04 93.903 50.3733 89.8497 54.48C85.8497 58.5867 81.1564 60.64 75.7697 60.64C70.4364 60.64 65.6364 58.2933 61.3697 53.6V75.52H52.4097V17.44H61.3697V24.88C64.8897 19.4933 69.503 16.8 75.2097 16.8ZM61.2097 38.8C61.2097 42.8533 62.4364 46.1867 64.8897 48.8C67.343 51.36 70.3297 52.64 73.8497 52.64C77.3697 52.64 80.4364 51.36 83.0497 48.8C85.663 46.24 86.9697 42.9333 86.9697 38.88C86.9697 34.7733 85.6897 31.3867 83.1297 28.72C80.5697 26 77.503 24.64 73.9297 24.64C70.3564 24.64 67.343 26 64.8897 28.72C62.4364 31.3867 61.2097 34.7467 61.2097 38.8ZM116.08 48.8C118.64 51.36 121.866 52.64 125.76 52.64C129.653 52.64 132.853 51.36 135.36 48.8C137.92 46.1867 139.2 42.8267 139.2 38.72C139.2 34.6133 137.92 31.28 135.36 28.72C132.853 26.1067 129.653 24.8 125.76 24.8C121.866 24.8 118.64 26.1067 116.08 28.72C113.573 31.28 112.32 34.6133 112.32 38.72C112.32 42.8267 113.573 46.1867 116.08 48.8ZM141.76 54.32C137.493 58.5333 132.16 60.64 125.76 60.64C119.36 60.64 114.026 58.5333 109.76 54.32C105.493 50.0533 103.36 44.8533 103.36 38.72C103.36 32.5867 105.493 27.4133 109.76 23.2C114.026 18.9333 119.36 16.8 125.76 16.8C132.16 16.8 137.493 18.9333 141.76 23.2C146.026 27.4133 148.16 32.5867 148.16 38.72C148.16 44.8533 146.026 50.0533 141.76 54.32ZM177.227 60.64C171.307 60.64 166.214 58.64 161.947 54.64C157.681 50.5867 155.547 45.3067 155.547 38.8C155.547 32.2933 157.761 27.0133 162.187 22.96C166.667 18.8533 172.107 16.8 178.507 16.8C184.907 16.8 190.321 19.0133 194.747 23.44L189.467 29.92C185.787 26.72 182.081 25.12 178.347 25.12C174.614 25.12 171.361 26.3733 168.587 28.88C165.867 31.3333 164.507 34.5333 164.507 38.48C164.507 42.3733 165.867 45.68 168.587 48.4C171.307 51.12 174.641 52.48 178.587 52.48C182.587 52.48 186.347 50.6667 189.867 47.04L195.147 52.8C189.974 58.0267 184.001 60.64 177.227 60.64ZM213.401 36.96V60H204.441V0.719995H213.401V25.2C214.681 22.5867 216.601 20.5333 219.161 19.04C221.774 17.5467 224.574 16.8 227.561 16.8C232.361 16.8 236.228 18.2667 239.161 21.2C242.148 24.1333 243.641 28.3733 243.641 33.92V60H234.681V36.64C234.681 28.8 231.428 24.88 224.921 24.88C221.828 24.88 219.134 25.92 216.841 28C214.548 30.0267 213.401 33.0133 213.401 36.96ZM274.833 24H298.753L273.553 58.64V60H304.593V56.32H279.633L304.593 22V20.48H274.833V24ZM330.592 60.56C336.912 60.56 343.792 58 347.632 52.96L344.832 50.72C341.872 54.64 335.792 56.72 330.592 56.72C322.432 56.72 315.312 51.36 314.512 42.08H350.112C351.632 26.64 341.712 19.84 330.592 19.84C319.472 19.84 310.512 28.4 310.512 40.24C310.512 52.8 319.472 60.56 330.592 60.56ZM314.512 38.64C315.392 28.96 322.432 23.44 330.592 23.44C340.112 23.44 346.512 28.88 346.592 38.64H314.512ZM360.252 20.48V60H364.172V36.96C364.172 29.76 369.852 23.84 377.212 23.76C379.532 23.76 381.852 24.32 383.932 25.6L385.692 22.4C383.052 20.8 380.172 20 377.212 20.08C372.172 20.08 366.572 22.16 364.092 27.52L363.932 20.48H360.252ZM409.82 60.56C420.94 60.56 429.9 52.88 429.9 40.32C429.9 27.76 420.94 19.76 409.82 19.76C398.7 19.76 389.74 27.76 389.74 40.32C389.74 52.88 398.7 60.56 409.82 60.56ZM409.82 56.72C400.86 56.72 393.58 50.56 393.58 40.32C393.58 30.08 400.86 23.44 409.82 23.44C418.78 23.44 426.06 30.08 426.06 40.32C426.06 50.56 418.78 56.72 409.82 56.72Z" fill="white"/>
</svg>
